<?xml version="1.0" encoding="utf-8"?>
<!-- Generator: Adobe Illustrator 28.0.0, SVG Export Plug-In . SVG Version: 6.00 Build 0)  -->
<svg version="1.1" id="Layer_1" xmlns="http://www.w3.org/2000/svg" xmlns:xlink="http://www.w3.org/1999/xlink" x="0px" y="0px"
	 viewBox="0 0 30.4 30" style="enable-background:new 0 0 30.4 30;" xml:space="preserve">
<style type="text/css">
	.st0{fill:url(#SVGID_1_);}
</style>
<g>
	
		<linearGradient id="SVGID_1_" gradientUnits="userSpaceOnUse" x1="1611.3071" y1="-2442.5835" x2="1767.91" y2="-2295.6924" gradientTransform="matrix(0.1503 0 0 -0.1503 -239.7794 -339.9307)">
		<stop  offset="0" style="stop-color:#0978E3"/>
		<stop  offset="0.9988" style="stop-color:#4726EA"/>
	</linearGradient>
	<path class="st0" d="M26,15.7c0.1-0.2,0.1-0.5,0.1-0.7c0-0.2,0-0.5-0.1-0.7l1.4-1.4c1.4-1.4,2.1-3.2,2.1-5.1c0-1.9-0.8-3.7-2.1-5.1
		c-1.4-1.4-3.2-2.1-5.1-2.1c-1.9,0-3.7,0.8-5.1,2.1L16,3.9c-0.5-0.2-1.2-0.2-1.7,0L13,2.7c-1.4-1.4-3.2-2.1-5.1-2.1S4.2,1.3,2.9,2.7
		S0.8,5.8,0.8,7.8s0.8,3.7,2.1,5.1l1.6,1.6c0,0.2-0.1,0.4-0.1,0.5s0,0.4,0,0.5l-1.6,1.6c-1.4,1.4-2.1,3.2-2.1,5.1s0.8,3.7,2.1,5.1
		C4.2,28.7,6,29.4,8,29.4c1.9,0,3.7-0.8,5.1-2.1l1.4-1.4c0.5,0.1,1,0.1,1.4,0l1.4,1.4c1.4,1.4,3.2,2.1,5.1,2.1
		c1.9,0,3.7-0.8,5.1-2.1c1.4-1.4,2.1-3.2,2.1-5.1c0-1.9-0.8-3.7-2.1-5.1L26,15.7z M17.9,6l1.4-1.4c0.8-0.8,2-1.3,3.1-1.3
		s2.3,0.5,3.1,1.3c0.8,0.8,1.3,2,1.3,3.1s-0.5,2.3-1.3,3.1l-1.4,1.4c-0.3-0.1-0.5-0.1-0.8-0.1c-0.2,0-0.5,0-0.7,0.1l-4.8-4.8
		C17.9,7.2,18,6.9,18,6.6C18,6.4,17.9,6.2,17.9,6z M17.9,22.5l4.7-4.7c0.5,0.1,1,0.1,1.5,0l1.4,1.4c0.8,0.8,1.3,2,1.3,3.1
		c0,1.2-0.5,2.3-1.3,3.1c-0.8,0.8-2,1.3-3.1,1.3c-1.2,0-2.3-0.5-3.1-1.3L17.8,24c0.1-0.3,0.1-0.5,0.1-0.8
		C18,22.9,17.9,22.7,17.9,22.5z M20.6,15.8L16,20.5c-0.3-0.1-0.5-0.1-0.8-0.1c-0.3,0-0.5,0-0.8,0.1L9.9,16c0.1-0.3,0.2-0.6,0.2-1
		c0-0.3-0.1-0.7-0.2-1l4.7-4.7c0.4,0.1,0.8,0.1,1.3,0l4.8,4.8c-0.1,0.3-0.1,0.5-0.1,0.8C20.5,15.3,20.6,15.6,20.6,15.8z M12.5,7.5
		l-4.7,4.7c-0.5-0.1-1-0.1-1.5,0.1l-1.4-1.4C4,10.1,3.5,9,3.5,7.8S4,5.5,4.8,4.6c0.8-0.8,2-1.3,3.1-1.3s2.3,0.5,3.1,1.3L12.4,6
		c0,0.2-0.1,0.4-0.1,0.6C12.3,6.9,12.4,7.2,12.5,7.5z M6.2,17.6c0.5,0.2,1,0.2,1.5,0.1l4.7,4.7c-0.1,0.2-0.1,0.5-0.1,0.7
		c0,0.3,0,0.6,0.1,0.8l-1.4,1.4c-0.8,0.8-2,1.3-3.1,1.3s-2.3-0.5-3.1-1.3c-0.8-0.8-1.3-2-1.3-3.1c0-1.2,0.5-2.3,1.3-3.1L6.2,17.6z"
		/>
</g>
</svg>
